<svg viewBox="0 0 2160 2160" xmlns="http://www.w3.org/2000/svg" height="18pt" width="18pt">
    <path d="M228.899 1035.722L764.175 1571c37.49 37.49 98.277 37.488 135.765 0 37.49-37.49 37.493-98.271 0-135.765L520.764 1056.06h1111.243c53.016 0 95.993-42.984 95.993-96 0-53.02-42.988-96-95.993-96H519.764L898.94 484.884c37.49-37.491 37.488-98.277 0-135.765-37.49-37.49-98.271-37.493-135.765 0L220.36 891.934a96.61 96.61 0 0 0-2.222 2.28 95.61 95.61 0 0 0-18.6 28.491C194.684 934.187 192 946.81 192 960.06c0 12.921 2.553 25.246 7.182 36.498 4.686 11.417 11.665 22.113 20.936 31.384a96.975 96.975 0 0 0 8.78 7.781z" fill-rule="evenodd"/>
</svg>
