<svg viewBox="0 0 2048 2048" xmlns="http://www.w3.org/2000/svg" height="32pt" width="32pt">
    <path d="M960 824.235L484.828 349.064c-37.492-37.492-98.278-37.495-135.768-.004-37.488 37.488-37.489 98.276.004 135.768L824.235 960l-475.171 475.172c-37.492 37.492-37.495 98.278-.004 135.768 37.488 37.488 98.276 37.489 135.768-.004L960 1095.765l475.172 475.171c37.492 37.492 98.278 37.495 135.768.004 37.488-37.488 37.489-98.276-.004-135.768L1095.765 960l475.171-475.172c37.492-37.492 37.495-98.278.004-135.768-37.488-37.488-98.276-37.489-135.768.004L960 824.235z" fill-rule="evenodd"/>
</svg>
