<svg viewBox="0 0 2048 2048" xmlns="http://www.w3.org/2000/svg" height="32pt" width="32pt">
    <path d="M1835 375.663c-64.385 30.777-133.583 51.505-206.208 60.848 74.156-47.815 131.03-123.58 157.864-213.871-69.343 44.282-146.198 76.472-228.01 93.824-65.48-75.138-158.813-122.089-262.063-122.089-198.26 0-359.041 173.044-359.041 386.6 0 30.307 3.208 59.828 9.26 88.093-298.375-16.095-562.917-170.06-740.031-403.952-30.917 57.08-48.636 123.502-48.636 194.32 0 134.102 63.365 252.422 159.688 321.75-58.844-2.042-114.188-19.393-162.604-48.365v4.868c0 187.333 123.74 343.575 288.02 379.063-30.114 8.794-61.833 13.583-94.572 13.583-23.115 0-45.646-2.434-67.521-6.909 45.719 153.573 178.281 265.376 335.416 268.438-122.864 103.716-277.666 165.506-445.885 165.506-28.948 0-57.531-1.805-85.677-5.417 158.885 109.683 347.594 173.672 550.375 173.672 660.406 0 1021.49-589.087 1021.49-1099.975 0-16.723-.365-33.447-1.021-50.013 70.146-54.489 131.031-122.56 179.156-200.131v.157" fill-rule="evenodd"/>
</svg>
