<svg xmlns="http://www.w3.org/2000/svg"><symbol id="add" viewBox="0 0 1920 1920">
    <path d="M1080 840V240c0-66.271-53.726-120-120-120-66.27 0-120 53.726-120 120v600H240c-66.271 0-120 53.726-120 120 0 66.27 53.726 120 120 120h600v600c0 66.271 53.726 120 120 120 66.27 0 120-53.726 120-120v-600h600c66.271 0 120-53.726 120-120 0-66.27-53.726-120-120-120h-600z" fill-rule="evenodd"/>
</symbol><symbol id="back" viewBox="0 0 1920 1920">
    <path d="M859.963 535.854c46.863-46.863 46.866-122.846.003-169.71-46.86-46.86-122.844-46.86-169.71.005L181.15 875.257c-46.861 46.86-46.868 122.847-.005 169.71l84.855 84.855 424.26 424.26c46.867 46.867 122.845 46.865 169.707.002 46.86-46.86 46.862-122.844-.003-169.71l-304.26-304.26h1099.066c66.278 0 120.007-53.73 120.007-120 0-66.274-53.72-120-120.007-120H555.702l304.26-304.26z" fill-rule="evenodd"/>
</symbol><symbol id="check" viewBox="0 0 1920 1920">
    <path d="M578.262 1595.938c46.86 46.86 122.842 46.863 169.705 0L1851.054 492.853c46.869-46.869 46.863-122.843 0-169.706-46.86-46.86-122.843-46.863-169.706 0L663.114 1341.38 238.855 917.12c-46.86-46.86-122.847-46.867-169.71-.004-46.86 46.86-46.861 122.845.004 169.71l509.108 509.108.005.004z" fill-rule="evenodd"/>
</symbol><symbol id="close" viewBox="0 0 1920 1920">
    <g fill-rule="evenodd">
        <path d="M1638.829 1469.123c46.86 46.86 46.854 122.84-.006 169.7-46.863 46.862-122.85 46.856-169.7.006L281.171 450.877c-46.86-46.86-46.854-122.84.006-169.7 46.863-46.862 122.85-46.856 169.7-.006l1187.952 1187.952z"/>
        <path d="M1469.123 281.171c46.86-46.86 122.84-46.854 169.7.006 46.862 46.863 46.856 122.85.006 169.7L450.877 1638.829c-46.86 46.86-122.84 46.854-169.7-.006-46.862-46.863-46.856-122.85-.006-169.7L1469.123 281.171z"/>
    </g>
</symbol><symbol id="twitter" viewBox="0 0 1920 1920">
    <path d="M1835 375.663c-64.385 30.777-133.583 51.505-206.208 60.848 74.156-47.815 131.03-123.58 157.864-213.871-69.343 44.282-146.198 76.472-228.01 93.824-65.48-75.138-158.813-122.089-262.063-122.089-198.26 0-359.041 173.044-359.041 386.6 0 30.307 3.208 59.828 9.26 88.093-298.375-16.095-562.917-170.06-740.031-403.952-30.917 57.08-48.636 123.502-48.636 194.32 0 134.102 63.365 252.422 159.688 321.75-58.844-2.042-114.188-19.393-162.604-48.365v4.868c0 187.333 123.74 343.575 288.02 379.063-30.114 8.794-61.833 13.583-94.572 13.583-23.115 0-45.646-2.434-67.521-6.909 45.719 153.573 178.281 265.376 335.416 268.438-122.864 103.716-277.666 165.506-445.885 165.506-28.948 0-57.531-1.805-85.677-5.417 158.885 109.683 347.594 173.672 550.375 173.672 660.406 0 1021.49-589.087 1021.49-1099.975 0-16.723-.365-33.447-1.021-50.013 70.146-54.489 131.031-122.56 179.156-200.131v.157" fill-rule="evenodd"/>
</symbol></svg>